# xmcd
# 
# Track frame offsets:
#     150
#     23070
#     43587
#     68400
#     87137
#     110075
#     132975
#     157575
#     181562
#     195225
#     216987
#     236237
# 
# Disc length: 3618
# 
# Revision: 3
# Processed by: cddbd v1.5.2PL0 Copyright (c) Steve Scherf et al.
# Submitted via: BonkEnc v1.0.8
# 
DISCID=910e200c
DTITLE=柳ジョージ - For Your Love
DYEAR=0
DGENRE=
TTITLE0=柳ジョージ - 星空の南十字星
TTITLE1=柳ジョージ - センチメンタル ナイト
TTITLE2=柳ジョージ - 真夜中のテレフォン・コール
TTITLE3=柳ジョージ - フォー・ユア・ラブ
TTITLE4=柳ジョージ - 歌舞伎
TTITLE5=柳ジョージ - 青い瞳のステラ、1962年 夏・・・
TTITLE6=柳ジョージ - さらばミシシッピー
TTITLE7=柳ジョージ - ヴェカンシィ
TTITLE8=柳ジョージ - ハーバー・フリーウェイ
TTITLE9=柳ジョージ - Every Highway Leads to You
TTITLE10=柳ジョージ - キャデラック
TTITLE11=柳ジョージ - コイン ランドリィ ブルース
EXTD=GEORGE YANAGI THE BEST COLLECTION
EXTT0=
EXTT1=
EXTT2=
EXTT3=
EXTT4=
EXTT5=
EXTT6=
EXTT7=
EXTT8=
EXTT9=
EXTT10=
EXTT11=
PLAYORDER=
